<?xml version="1.0" encoding="UTF-8" standalone="no"?>
<svg
   xmlns:dc="http://purl.org/dc/elements/1.1/"
   xmlns:cc="http://creativecommons.org/ns#"
   xmlns:rdf="http://www.w3.org/1999/02/22-rdf-syntax-ns#"
   xmlns:svg="http://www.w3.org/2000/svg"
   xmlns="http://www.w3.org/2000/svg"
   xmlns:sodipodi="http://sodipodi.sourceforge.net/DTD/sodipodi-0.dtd"
   xmlns:inkscape="http://www.inkscape.org/namespaces/inkscape"
   width="124.61875mm"
   height="124.61875mm"
   viewBox="0 0 124.61875 124.61875"
   version="1.1"
   id="svg8"
   sodipodi:docname="favicon_dark.svg"
   inkscape:version="1.0.2 (e86c8708, 2021-01-15)">
  <sodipodi:namedview
     pagecolor="#ffffff"
     bordercolor="#666666"
     borderopacity="0"
     objecttolerance="10"
     gridtolerance="10"
     guidetolerance="10"
     inkscape:pageopacity="0"
     inkscape:pageshadow="2"
     inkscape:window-width="1280"
     inkscape:window-height="800"
     id="namedview31"
     showgrid="false"
     inkscape:zoom="0.68593502"
     inkscape:cx="235.50001"
     inkscape:cy="235.49999"
     inkscape:window-x="0"
     inkscape:window-y="0"
     inkscape:window-maximized="0"
     inkscape:current-layer="svg8"
     fit-margin-top="0"
     fit-margin-left="0"
     fit-margin-right="0"
     fit-margin-bottom="0" />
  <style
     id="style10">
    path g {
      fill: #000000;
    }
    @media (prefers-color-scheme: dark) {
      path g {
        fill: #ffffff;
      }
    }
   </style>
  <defs
     id="defs2">
    <marker
       style="overflow:visible"
       id="marker1503"
       refX="0"
       refY="0"
       orient="auto">
      <path
         transform="matrix(0.8,0,0,0.8,10,0)"
         style="fill-opacity:1;fill-rule:evenodd;stroke:#ffffff;stroke-width:1pt;stroke-opacity:1"
         d="M 0,0 5,-5 -12.5,0 5,5 Z"
         id="path1501" />
    </marker>
    <marker
       style="overflow:visible"
       id="marker1463"
       refX="0"
       refY="0"
       orient="auto">
      <path
         transform="matrix(0.8,0,0,0.8,10,0)"
         style="fill-opacity:1;fill-rule:evenodd;stroke:#ffffff;stroke-width:1pt;stroke-opacity:1"
         d="M 0,0 5,-5 -12.5,0 5,5 Z"
         id="path1461" />
    </marker>
    <marker
       style="overflow:visible"
       id="marker1429"
       refX="0"
       refY="0"
       orient="auto">
      <path
         transform="matrix(0.8,0,0,0.8,10,0)"
         style="fill-opacity:1;fill-rule:evenodd;stroke:#ffffff;stroke-width:1pt;stroke-opacity:1"
         d="M 0,0 5,-5 -12.5,0 5,5 Z"
         id="path1427" />
    </marker>
    <marker
       style="overflow:visible"
       id="marker1401"
       refX="0"
       refY="0"
       orient="auto">
      <path
         transform="matrix(0.8,0,0,0.8,10,0)"
         style="fill-opacity:1;fill-rule:evenodd;stroke:#ffffff;stroke-width:1pt;stroke-opacity:1"
         d="M 0,0 5,-5 -12.5,0 5,5 Z"
         id="path1399" />
    </marker>
    <marker
       style="overflow:visible"
       id="marker1379"
       refX="0"
       refY="0"
       orient="auto">
      <path
         transform="matrix(0.8,0,0,0.8,10,0)"
         style="fill-opacity:1;fill-rule:evenodd;stroke:#ffffff;stroke-width:1pt;stroke-opacity:1"
         d="M 0,0 5,-5 -12.5,0 5,5 Z"
         id="path1377" />
    </marker>
    <marker
       style="overflow:visible"
       id="Arrow1Lstart"
       refX="0"
       refY="0"
       orient="auto">
      <path
         transform="matrix(0.8,0,0,0.8,10,0)"
         style="fill-opacity:1;fill-rule:evenodd;stroke:#ffffff;stroke-width:1pt;stroke-opacity:1"
         d="M 0,0 5,-5 -12.5,0 5,5 Z"
         id="path893" />
    </marker>
  </defs>
  <metadata
     id="metadata5">
    <rdf:RDF>
      <cc:Work
         rdf:about="">
        <dc:format>image/svg+xml</dc:format>
        <dc:type
           rdf:resource="http://purl.org/dc/dcmitype/StillImage" />
        <dc:title></dc:title>
      </cc:Work>
    </rdf:RDF>
  </metadata>
  <g
     id="layer4"
     transform="translate(-42.690624,-86.190628)" />
  <g
     id="layer2"
     style="fill-opacity:1;stroke:#000000;stroke-width:0;stroke-miterlimit:4;stroke-dasharray:none;stroke-opacity:1"
     transform="translate(-42.690624,-86.190628)">
    <g
       id="layer1"
       transform="translate(-0.01575961,0.00918005)"
       style="fill-opacity:1;stroke:#000000;stroke-width:0;stroke-miterlimit:4;stroke-dasharray:none;stroke-opacity:1">
      <path
         style="fill-opacity:1;stroke:#000000;stroke-width:0;stroke-miterlimit:4;stroke-dasharray:none;stroke-dashoffset:0;stroke-opacity:1;paint-order:markers stroke fill"
         d="m 102.90653,210.48802 c -3.53861,-0.73828 -6.79318,-3.56016 -7.96136,-6.90289 l -0.33526,-0.95934 -2.6707,-0.1225 c -2.19734,-0.10079 -2.90519,-0.24325 -3.99362,-0.80374 -1.68593,-0.86817 -3.11539,-2.3508 -3.88955,-4.03425 -0.6077,-1.32147 -0.60852,-1.33999 -0.74066,-16.93333 l -0.13229,-15.61042 -0.7223,-1.36979 c -0.77788,-1.47519 -2.64653,-3.77849 -6.42643,-7.92119 -3.07718,-3.37253 -4.59692,-5.36927 -6.36866,-8.36755 -2.4501,-4.14627 -4.17176,-9.25945 -4.87459,-14.47716 -0.39264,-2.91488 -0.39463,-9.07469 -0.004,-11.89268 2.09411,-15.10109 12.80477,-28.00446 27.26767,-32.849976 4.84073,-1.621796 7.00031,-1.946198 12.95628,-1.94624 4.61329,-3.3e-5 5.82685,0.08761 8.11964,0.586368 15.22635,3.31227 27.32306,14.770778 31.15231,29.508718 0.93333,3.59218 1.26269,6.4217 1.25292,10.76355 -0.0184,8.17037 -1.95374,14.78322 -6.09694,20.83244 -0.87946,1.28406 -3.1217,3.97908 -4.98275,5.98894 -4.68611,5.06083 -5.508,6.09557 -6.63401,8.35208 l -0.98304,1.97 -0.13229,16.02166 -0.1323,16.02167 -0.60837,1.32291 c -0.77416,1.68345 -2.20361,3.16608 -3.88954,4.03425 -1.08853,0.56054 -1.79626,0.70295 -3.99446,0.80377 l -2.67153,0.12254 -0.44597,1.22389 c -1.68559,4.62585 -7.18721,7.65456 -12.05834,6.63827 z m 4.30062,-5.70917 c 0.92907,-0.4686 2.30197,-1.6636 2.30197,-2.00367 0,-0.1183 -2.02406,-0.21509 -4.49792,-0.21509 -2.47385,0 -4.49791,0.0968 -4.49791,0.21509 0,0.32353 1.3488,1.51813 2.24896,1.99184 1.03928,0.54693 3.37166,0.55314 4.4449,0.0118 z m 11.77681,-7.67237 c 0.46002,-0.092 1.13574,-0.46663 1.50161,-0.83249 0.65948,-0.65949 0.66522,-0.7048 0.66522,-5.25935 v -4.59413 H 105.0112 88.87163 v 4.59413 c 0,4.58418 0.002,4.5956 0.6818,5.27593 0.37499,0.37499 0.94054,0.72992 1.25677,0.78873 0.96914,0.18022 27.28162,0.20561 28.17376,0.0272 z m 2.24258,-24.37816 c 0.15644,-8.82952 0.28385,-9.74641 1.79731,-12.93402 1.08688,-2.28916 2.51645,-4.13177 6.84907,-8.82795 5.54167,-6.0067 7.37929,-8.80599 8.8581,-13.49375 1.16134,-3.68144 1.54147,-6.93938 1.37374,-11.77396 -0.0808,-2.32833 -0.33268,-5.06677 -0.55979,-6.08542 -3.12958,-14.0371 -13.58099,-24.473899 -27.46048,-27.422074 -3.55739,-0.755633 -10.03345,-0.821544 -13.49469,-0.137344 -12.85964,2.542019 -23.13353,11.561278 -27.02298,23.722958 -1.40565,4.39528 -1.61498,5.92444 -1.59365,11.64167 0.0157,4.21397 0.121,5.61996 0.57447,7.67292 1.50794,6.8267 3.93703,11.13122 10.00359,17.72708 5.84894,6.35924 7.59842,9.23285 8.05872,13.23681 0.14171,1.23272 0.25857,5.06905 0.25967,8.52517 l 0.002,6.28385 h 16.10538 16.10538 z m -18.86117,-14.15768 v -17.00196 l -5.29632,-5.28919 c -3.86682,-3.86161 -5.36339,-5.53095 -5.54482,-6.18493 -0.61146,-2.20409 1.76323,-4.19948 3.78094,-3.17702 0.31785,0.16107 2.6288,2.32974 5.13542,4.81927 l 4.55751,4.5264 4.70291,-4.65339 c 5.11692,-5.06306 5.63016,-5.38605 7.29967,-4.59381 1.03349,0.49042 1.50427,1.33665 1.50427,2.70391 0,0.88649 -0.3821,1.33856 -5.42396,6.41712 l -5.42395,5.46344 v 16.98605 16.98607 h -2.64584 -2.64583 z"
         id="path62-2" />
    </g>
  </g>
</svg>
